<?xml version="1.0" encoding="UTF-8"?>
<svg xmlns="http://www.w3.org/2000/svg" xmlns:xlink="http://www.w3.org/1999/xlink" version="1.2" >
<font id="Berthold Akzidenz Grotesk BE Md">
<font-face  font-family="Berthold Akzidenz Grotesk BE" units-per-em="1000" ascent="750" descent="-250" font-style="normal" font-weight="500" font-stretch="normal" cap-height="750" x-height="500" underline-position="-75" underline-thickness="50" />
<missing-glyph  horiz-adv-x="271" d="" />
<glyph glyph-name="NULL" d="" />
<glyph glyph-name="CR" unicode="&#xd;" horiz-adv-x="250" d="" />
<glyph glyph-name="space" unicode="&#x20;" horiz-adv-x="271" d="" />
<glyph glyph-name="exclam" unicode="&#x21;" horiz-adv-x="250" d="M211 436 L211 706 L80 706 L80 436 L117 176 L173 176 L211 436 Z M80 138 L80 0 L211 0 L211 138 L80 138 Z " />
<glyph glyph-name="quotedbl" unicode="&#x22;" horiz-adv-x="396" d="M363 680 C364 694 365 708 358 720 C356 724 343 749 306 749 C268 749 240 724 240 690 C240 683 241 676 242 668 L289 421 L316 421 L363 680 Z M154 680 C156 694 157 711 146 726 C141 733 126 749 98 749 C60 749 32 725 32 690 C32 683 33 676 34 668 L81 421 L108 421 L154 680 Z " />
<glyph glyph-name="numbersign" unicode="&#x23;" horiz-adv-x="667" d="M466 214 L601 214 L601 313 L478 313 L492 408 L622 408 L622 508 L505 508 L532 707 L431 707 L404 508 L306 508 L334 707 L230 707 L203 508 L65 508 L65 408 L190 408 L178 313 L42 313 L42 214 L164 214 L134 0 L236 0 L266 214 L365 214 L334 0 L435 0 L466 214 Z M278 313 L292 408 L391 408 L378 313 L278 313 Z " />
<glyph glyph-name="dollar" unicode="&#x24;" horiz-adv-x="625" d="M359 805 L267 805 L267 697 C235 692 143 680 89 604 C66 571 54 530 54 491 C54 332 224 315 267 311 L267 120 C231 123 182 149 137 210 L36 133 C110 29 202 12 267 0 L267 -114 L359 -114 L359 0 C406 6 464 15 518 63 C575 114 586 172 586 219 C586 371 458 410 359 428 L359 588 C397 578 435 570 480 513 L574 588 C495 681 396 693 359 697 L359 805 Z M267 444 C207 455 186 476 186 511 C186 547 214 580 267 588 L267 444 Z M359 297 C414 286 455 261 455 211 C455 165 415 128 359 118 L359 297 Z " />
<glyph glyph-name="percent" unicode="&#x25;" horiz-adv-x="875" d="M850 223 C849 266 849 376 770 427 C747 442 719 449 690 449 C658 449 625 440 599 421 C525 367 525 260 525 224 C525 176 525 75 593 23 C619 3 653 -7 687 -7 C751 -7 805 24 833 97 C848 137 850 180 850 223 L850 223 Z M760 220 C760 162 758 71 687 71 C624 71 615 149 615 216 C615 240 616 265 620 290 C623 312 628 336 643 352 C654 364 671 372 688 372 C760 372 760 267 760 220 L760 220 Z M238 -5 L307 -36 L621 646 L554 677 L238 -5 Z M351 458 C350 501 349 603 280 654 C255 672 223 681 191 681 C156 681 121 670 95 649 C26 594 26 492 26 452 C26 411 26 300 102 249 C127 232 157 225 187 225 C256 225 309 260 336 335 C350 375 351 417 351 458 L351 458 Z M261 457 C261 404 261 303 190 303 C116 303 116 408 116 448 C116 502 118 605 189 605 C261 605 261 503 261 457 L261 457 Z " />
<glyph glyph-name="ampersand" unicode="&#x26;" horiz-adv-x="646" d="M488 327 C484 290 480 259 451 216 C439 230 372 327 359 351 C463 387 492 461 492 512 C492 585 433 662 329 662 C239 662 166 602 166 497 C166 444 184 413 197 393 C113 345 43 286 43 184 C43 109 91 -15 267 -15 C346 -15 392 8 437 38 C463 15 491 -3 563 -3 C581 -3 585 -2 614 0 L614 100 C604 98 600 98 592 98 C551 98 535 114 521 129 C552 167 591 242 603 327 L488 327 Z M309 439 C293 464 279 489 279 515 C279 548 302 567 333 567 C365 567 387 544 387 514 C387 464 339 449 309 439 L309 439 Z M371 127 C329 91 288 89 274 89 C211 89 164 136 164 192 C164 248 206 278 251 304 L371 127 Z " />
<glyph glyph-name="quotesingle" unicode="&#x27;" horiz-adv-x="208" d="M165 680 C166 694 168 711 157 726 C153 731 137 749 108 749 C80 749 43 732 43 690 C43 683 43 676 44 668 L91 421 L118 421 L165 680 Z " />
<glyph glyph-name="parenleft" unicode="&#x28;" horiz-adv-x="354" d="M328 -41 C246 30 187 156 187 308 C187 374 195 465 218 543 C252 659 309 716 328 736 L293 786 C228 735 170 675 125 606 C75 528 47 451 47 347 C47 279 59 188 116 94 C144 47 213 -44 299 -91 L328 -41 Z " />
<glyph glyph-name="parenright" unicode="&#x29;" horiz-adv-x="354" d="M26 736 C108 664 167 538 167 387 C167 320 159 229 136 152 C102 36 45 -22 26 -41 L61 -91 C126 -41 184 19 229 89 C279 166 307 244 307 348 C307 417 294 507 238 601 C211 647 142 739 55 786 L26 736 Z " />
<glyph glyph-name="asterisk" unicode="&#x2a;" horiz-adv-x="375" d="M315 642 L236 612 L204 585 L221 626 L221 706 L151 706 L151 626 L167 585 L135 612 L57 637 L35 571 L116 546 L151 546 L121 528 L72 459 L128 417 L177 484 L186 528 L198 484 L252 417 L306 459 L252 528 L214 551 L257 546 L340 578 L315 642 Z " />
<glyph glyph-name="plus" unicode="&#x2b;" horiz-adv-x="667" d="M386 240 L625 240 L625 342 L386 342 L386 583 L283 583 L283 342 L42 342 L42 240 L283 240 L283 0 L386 0 L386 240 Z " />
<glyph glyph-name="comma" unicode="&#x2c;" horiz-adv-x="208" d="M37 137 L37 0 L99 0 C99 -18 102 -74 45 -81 L45 -139 C82 -131 108 -125 134 -102 C170 -71 170 -41 170 16 L170 137 L37 137 Z " />
<glyph glyph-name="hyphen" unicode="&#x2d;" horiz-adv-x="354" d="M53 370 L53 258 L301 258 L301 370 L53 370 Z " />
<glyph glyph-name="period" unicode="&#x2e;" horiz-adv-x="208" d="M37 137 L37 0 L169 0 L169 137 L37 137 Z " />
<glyph glyph-name="slash" unicode="&#x2f;" horiz-adv-x="479" d="M13 0 L132 0 L467 706 L349 706 L13 0 Z " />
<glyph glyph-name="zero" unicode="0" horiz-adv-x="562" d="M529 341 C529 407 525 510 473 588 C421 666 347 686 287 686 C200 686 133 642 96 591 C41 515 36 403 36 334 C36 256 43 163 85 96 C108 60 165 -9 281 -9 C316 -9 351 -3 383 12 C512 71 529 220 529 341 L529 341 Z M400 337 C400 195 379 102 284 102 C176 102 166 222 166 332 C166 448 178 576 286 576 C370 576 400 491 400 337 L400 337 Z " />
<glyph glyph-name="one" unicode="1" horiz-adv-x="562" d="M263 675 C236 548 151 547 88 546 L75 546 L75 469 L185 469 C240 469 240 450 240 386 L240 0 L363 0 L363 675 L263 675 Z " />
<glyph glyph-name="two" unicode="2" horiz-adv-x="562" d="M221 104 C259 132 349 208 364 221 C438 288 505 366 505 475 C505 603 416 686 288 686 C215 686 151 656 114 613 C88 582 57 521 57 426 L183 415 C182 463 179 571 278 571 C341 571 367 522 367 470 C367 381 305 316 268 278 C228 237 143 156 57 97 L57 0 L516 0 L516 104 L221 104 Z " />
<glyph glyph-name="three" unicode="3" horiz-adv-x="562" d="M193 462 C194 485 200 575 289 575 C345 575 375 535 375 489 C375 413 309 410 294 409 C286 409 281 409 239 410 L239 305 L272 306 C304 306 327 302 344 292 C375 275 390 243 390 207 C390 155 361 100 285 100 C218 100 179 143 179 200 C179 208 179 214 180 221 L47 221 C47 131 82 75 113 47 C151 11 215 -9 283 -9 C438 -9 524 83 524 200 C524 308 450 351 396 362 C418 368 446 375 471 403 C478 411 508 443 508 507 C508 651 365 686 293 686 C235 686 175 666 135 632 C79 585 67 522 61 490 L193 462 Z " />
<glyph glyph-name="four" unicode="4" horiz-adv-x="562" d="M435 258 L435 676 L313 676 L17 244 L17 156 L313 156 L313 0 L435 0 L435 156 L523 156 L523 258 L435 258 Z M146 258 L320 526 L313 258 L146 258 Z " />
<glyph glyph-name="five" unicode="5" horiz-adv-x="562" d="M480 677 L105 677 L57 306 L170 299 C186 341 225 362 271 362 C331 362 383 319 383 235 C383 182 362 135 332 115 C316 104 296 99 273 99 C222 99 179 130 176 199 L36 189 C39 156 46 69 140 19 C179 -1 223 -9 268 -9 C428 -9 519 101 519 240 C519 376 434 465 314 465 C262 465 214 445 184 415 L207 564 L470 564 L480 677 Z " />
<glyph glyph-name="six" unicode="6" horiz-adv-x="562" d="M505 518 C502 536 497 565 477 597 C447 644 387 686 299 686 C61 686 48 412 48 318 C48 243 58 151 100 87 C129 43 188 -9 286 -9 C416 -9 513 86 513 225 C513 368 416 435 320 435 C260 435 213 411 178 367 C183 459 200 576 298 576 C327 576 375 561 377 500 L505 518 Z M387 212 C387 162 364 103 288 103 C195 103 190 192 190 213 C190 269 222 322 291 322 C351 322 387 278 387 212 L387 212 Z " />
<glyph glyph-name="seven" unicode="7" horiz-adv-x="562" d="M512 677 L64 677 L64 559 L369 559 C288 446 236 372 185 247 C143 143 131 64 120 0 L285 0 C305 214 382 406 512 568 L512 677 Z " />
<glyph glyph-name="eight" unicode="8" horiz-adv-x="562" d="M427 353 C491 384 515 435 515 494 C515 611 424 686 285 686 C140 686 53 605 53 500 C53 460 68 387 140 353 C106 337 29 300 29 194 C29 77 124 -9 278 -9 C425 -9 531 71 531 194 C531 256 505 314 427 353 L427 353 Z M284 576 C323 576 384 562 384 485 C384 447 364 396 285 396 C194 396 181 455 181 485 C181 522 199 577 284 576 L284 576 Z M284 295 C395 295 397 211 397 199 C397 136 349 102 284 102 C210 102 170 141 170 198 C170 219 177 295 284 295 L284 295 Z " />
<glyph glyph-name="nine" unicode="9" horiz-adv-x="562" d="M50 161 C53 146 60 110 81 77 C96 53 145 -9 253 -9 C416 -9 516 123 516 364 C516 409 516 583 398 656 C363 677 320 686 279 686 C164 686 50 614 50 453 C50 312 137 241 244 241 C314 241 361 274 379 300 C379 223 356 101 268 101 C233 101 209 120 198 143 C191 155 189 168 187 181 L50 161 Z M369 459 C369 350 286 349 275 349 C214 349 180 398 180 466 C180 546 231 577 275 577 C340 577 369 524 369 459 L369 459 Z " />
<glyph glyph-name="colon" unicode="&#x3a;" horiz-adv-x="250" d="M78 509 L78 372 L210 372 L210 509 L78 509 Z M78 137 L78 0 L210 0 L210 137 L78 137 Z " />
<glyph glyph-name="semicolon" unicode="&#x3b;" horiz-adv-x="250" d="M78 509 L78 371 L211 371 L211 509 L78 509 Z M78 137 L78 0 L140 0 C140 -25 141 -47 119 -66 C105 -79 93 -79 85 -80 L85 -140 C108 -135 146 -127 177 -101 C211 -71 211 -46 211 10 L211 137 L78 137 Z " />
<glyph glyph-name="less" unicode="&#x3c;" horiz-adv-x="667" d="M667 109 L138 352 L667 596 L667 709 L0 404 L0 300 L667 -3 L667 109 Z " />
<glyph glyph-name="equal" unicode="&#x3d;" horiz-adv-x="667" d="M667 249 L0 249 L0 146 L667 146 L667 249 Z M667 437 L0 437 L0 334 L667 334 L667 437 Z " />
<glyph glyph-name="greater" unicode="&#x3e;" horiz-adv-x="667" d="M667 300 L667 404 L0 709 L0 596 L528 352 L0 109 L0 -3 L667 300 Z " />
<glyph glyph-name="question" unicode="&#x3f;" horiz-adv-x="562" d="M174 473 C178 553 218 604 290 604 C353 604 397 559 397 507 C397 461 364 433 350 422 C333 410 315 400 299 387 C259 354 240 329 240 181 L357 181 C356 188 356 195 356 209 C356 249 356 276 393 307 C411 323 433 336 453 351 C484 374 534 422 534 510 C534 625 446 718 296 718 C195 718 65 670 53 487 L174 473 Z M233 137 L233 0 L366 0 L366 137 L233 137 Z " />
<glyph glyph-name="at" unicode="&#x40;" horiz-adv-x="896" d="M783 89 C697 4 583 -57 453 -57 C314 -57 138 15 138 236 C138 461 319 646 522 646 C628 646 756 592 756 418 C756 269 666 140 616 140 C604 140 591 151 591 175 C591 215 609 298 619 345 L652 499 L573 499 L561 448 C549 472 524 520 450 520 C331 520 236 379 236 234 C236 116 305 69 371 69 C427 69 469 98 506 145 C507 132 509 121 517 107 C527 90 552 68 592 68 C712 68 827 237 827 424 C827 575 731 712 526 712 C271 712 69 495 69 236 C69 -35 295 -124 455 -124 C610 -124 731 -51 823 38 L783 89 Z M532 349 C531 242 466 145 399 145 C366 145 327 171 327 238 C327 324 376 444 457 444 C493 444 534 414 532 349 L532 349 Z " />
<glyph glyph-name="A" unicode="A" horiz-adv-x="646" d="M495 0 L636 0 L395 706 L245 706 L7 0 L148 0 L189 138 L454 138 L495 0 Z M224 253 L322 578 L419 253 L224 253 Z " />
<glyph glyph-name="B" unicode="B" horiz-adv-x="688" d="M81 0 L357 0 C437 0 472 1 517 17 C602 47 643 119 643 200 C643 309 570 372 492 386 C530 393 558 408 580 437 C600 464 610 502 610 533 C610 610 557 673 486 694 C452 704 427 705 333 706 L81 706 L81 0 Z M295 598 C391 597 405 596 433 580 C460 564 474 537 474 510 C474 478 455 451 427 437 C403 424 370 423 337 423 C321 422 294 422 257 422 L212 422 L212 598 L295 598 Z M343 322 C388 322 462 322 494 265 C504 247 507 228 507 212 C507 178 493 151 475 138 C441 114 420 114 342 114 L212 114 L212 323 L343 322 Z " />
<glyph glyph-name="C" unicode="C" horiz-adv-x="688" d="M548 249 C543 233 534 207 511 176 C482 139 442 107 376 107 C265 107 180 196 180 357 C180 508 260 603 375 603 C448 603 487 563 502 541 C520 514 526 484 528 471 L660 506 C644 555 592 724 372 724 C192 724 37 595 37 355 C37 119 180 -18 367 -18 C482 -18 561 33 611 91 C646 133 663 174 672 197 L548 249 Z " />
<glyph glyph-name="D" unicode="D" horiz-adv-x="708" d="M71 0 L297 0 C380 1 454 2 524 43 C628 103 669 226 669 347 C669 426 651 568 533 651 C459 704 385 705 324 706 L71 706 L71 0 Z M273 586 C362 585 383 584 421 567 C519 520 529 412 529 346 C529 199 475 155 424 135 C394 124 359 119 259 119 L203 119 L203 586 L273 586 Z " />
<glyph glyph-name="E" unicode="E" horiz-adv-x="625" d="M580 588 L580 706 L78 706 L78 0 L605 0 L605 119 L208 119 L208 308 L548 308 L548 422 L208 422 L208 588 L580 588 Z " />
<glyph glyph-name="F" unicode="F" horiz-adv-x="562" d="M212 588 L548 588 L548 706 L81 706 L81 0 L212 0 L212 299 L507 299 L507 412 L212 412 L212 588 Z " />
<glyph glyph-name="G" unicode="G" horiz-adv-x="750" d="M388 386 L388 270 L564 270 C552 145 464 106 390 106 C275 106 190 195 190 350 C190 489 255 605 388 605 C508 605 546 504 559 465 L685 516 C642 634 534 724 387 724 C193 724 46 568 46 346 C46 156 161 -18 379 -18 C438 -18 509 -2 572 60 L572 0 L685 0 L685 386 L388 386 Z " />
<glyph glyph-name="H" unicode="H" horiz-adv-x="729" d="M516 706 L516 439 L213 439 L213 706 L81 706 L81 0 L213 0 L213 321 L516 321 L516 0 L649 0 L649 706 L516 706 Z " />
<glyph glyph-name="I" unicode="I" horiz-adv-x="292" d="M80 706 L80 0 L210 0 L210 706 L80 706 Z " />
<glyph glyph-name="J" unicode="J" horiz-adv-x="396" d="M202 706 L202 255 C202 197 202 167 177 142 C162 126 135 114 96 114 C68 114 45 120 26 124 L26 -6 C42 -9 66 -15 107 -15 C181 -15 259 4 301 63 C332 106 333 151 333 207 L333 706 L202 706 Z " />
<glyph glyph-name="K" unicode="K" horiz-adv-x="667" d="M650 706 L494 706 L211 382 L211 706 L80 706 L80 0 L211 0 L211 200 L326 332 L514 0 L665 0 L418 440 L650 706 Z " />
<glyph glyph-name="L" unicode="L" horiz-adv-x="521" d="M215 707 L82 707 L82 0 L495 0 L495 120 L215 120 L215 707 Z " />
<glyph glyph-name="M" unicode="M" horiz-adv-x="812" d="M541 706 L406 182 L268 706 L76 706 L76 0 L205 0 L192 580 L345 0 L464 0 L616 580 L604 0 L733 0 L733 706 L541 706 Z " />
<glyph glyph-name="N" unicode="N" horiz-adv-x="708" d="M513 207 L201 706 L82 706 L82 0 L211 0 L203 495 L512 0 L627 0 L627 706 L497 706 L513 207 Z " />
<glyph glyph-name="O" unicode="O" horiz-adv-x="771" d="M725 353 C726 594 562 724 387 724 C194 724 48 568 48 352 C48 263 72 171 142 90 C214 7 296 -18 385 -18 C602 -18 724 151 725 353 L725 353 Z M593 338 C590 168 477 104 389 104 C272 104 184 199 184 358 C184 505 265 603 386 603 C525 603 596 476 593 338 L593 338 Z " />
<glyph glyph-name="P" unicode="P" horiz-adv-x="625" d="M82 0 L215 0 L215 239 L318 239 C361 239 398 239 437 248 C563 276 607 377 607 471 C607 614 510 676 441 695 C400 706 359 706 320 706 L82 706 L82 0 Z M315 593 C358 593 404 592 437 564 C449 553 472 526 472 474 C472 449 467 374 385 354 C362 348 338 348 310 348 L215 348 L215 593 L315 593 Z " />
<glyph glyph-name="Q" unicode="Q" horiz-adv-x="771" d="M780 98 C775 97 771 96 766 96 C750 96 679 109 659 150 C697 210 710 311 710 365 C710 547 599 724 371 724 C155 724 36 552 36 353 C36 139 162 -18 370 -18 C451 -18 530 8 593 59 C636 20 686 -15 743 -28 L780 98 Z M568 353 C568 246 516 107 378 107 C263 107 177 207 177 350 C177 479 250 598 369 598 C466 598 569 516 568 353 L568 353 Z " />
<glyph glyph-name="R" unicode="R" horiz-adv-x="646" d="M81 0 L212 0 L212 262 L330 262 L470 0 L621 0 L464 287 C504 299 603 346 603 481 C603 563 569 619 525 655 C463 705 400 705 306 706 L81 706 L81 0 Z M273 592 C351 592 385 591 413 577 C468 549 469 497 469 482 C469 379 374 374 345 373 C320 372 303 371 258 371 L212 371 L212 592 L273 592 Z " />
<glyph glyph-name="S" unicode="S" horiz-adv-x="667" d="M23 132 C76 46 159 12 206 -2 C249 -14 293 -18 332 -18 C482 -18 632 47 632 209 C632 360 498 399 403 419 L330 435 C266 447 200 459 200 519 C200 573 262 605 333 605 C446 605 492 535 516 500 L624 581 C574 649 492 724 340 724 C174 724 61 638 61 504 C61 387 148 344 180 331 C202 322 224 317 269 306 L354 288 C418 273 420 272 436 266 C458 257 489 241 489 196 C489 172 480 136 429 115 C404 105 378 103 353 103 C204 103 151 184 134 210 L23 132 Z " />
<glyph glyph-name="T" unicode="T" horiz-adv-x="562" d="M541 706 L23 706 L23 586 L214 586 L214 0 L346 0 L346 586 L541 586 L541 706 Z " />
<glyph glyph-name="U" unicode="U" horiz-adv-x="729" d="M516 706 L516 279 C516 220 516 180 477 145 C438 111 385 110 364 110 C322 110 248 118 221 186 C211 213 212 242 212 272 L212 706 L80 706 L80 285 C81 197 81 175 90 144 C106 91 151 30 235 1 C275 -13 317 -18 360 -18 C408 -18 501 -12 573 51 C648 115 648 181 649 261 L649 706 L516 706 Z " />
<glyph glyph-name="V" unicode="V" horiz-adv-x="604" d="M458 706 L305 149 L147 706 L8 706 L216 0 L394 0 L595 706 L458 706 Z " />
<glyph glyph-name="W" unicode="W" horiz-adv-x="833" d="M687 706 L588 168 L476 706 L353 706 L243 168 L147 706 L12 706 L159 0 L313 0 L415 491 L514 0 L668 0 L823 706 L687 706 Z " />
<glyph glyph-name="X" unicode="X" horiz-adv-x="646" d="M599 706 L445 706 L323 504 L195 706 L43 706 L246 383 L9 0 L162 0 L323 261 L488 0 L639 0 L400 383 L599 706 Z " />
<glyph glyph-name="Y" unicode="Y" horiz-adv-x="625" d="M614 706 L467 706 L312 413 L159 706 L10 706 L246 279 L246 0 L376 0 L376 279 L614 706 Z " />
<glyph glyph-name="Z" unicode="Z" horiz-adv-x="604" d="M204 119 L575 593 L575 706 L57 706 L57 587 L410 587 L24 108 L24 0 L575 0 L575 119 L204 119 Z " />
<glyph glyph-name="bracketleft" unicode="&#x5b;" horiz-adv-x="354" d="M326 759 L60 759 L60 -58 L326 -58 L326 39 L191 39 L191 663 L326 663 L326 759 Z " />
<glyph glyph-name="backslash" unicode="&#x5c;" horiz-adv-x="479" d="M467 0 L132 706 L13 706 L349 0 L467 0 Z " />
<glyph glyph-name="bracketright" unicode="&#x5d;" horiz-adv-x="354" d="M26 -58 L292 -58 L292 759 L26 759 L26 661 L161 661 L161 38 L26 38 L26 -58 Z " />
<glyph glyph-name="asciicircum" unicode="&#x5e;" horiz-adv-x="667" d="M383 706 L292 706 L97 324 L214 324 L336 569 L452 324 L570 324 L383 706 Z " />
<glyph glyph-name="underscore" unicode="&#x5f;" horiz-adv-x="500" d="M510 -75 L-10 -75 L-10 -125 L510 -125 L510 -75 Z " />
<glyph glyph-name="grave" unicode="&#x60;" horiz-adv-x="271" d="M36 707 L146 573 L235 573 L183 707 L36 707 Z " />
<glyph glyph-name="a" unicode="a" horiz-adv-x="542" d="M172 346 C172 360 171 374 184 390 C196 406 223 422 273 422 C356 422 358 371 358 346 C314 332 306 330 203 309 C155 300 78 284 42 212 C32 192 26 169 26 144 C26 58 94 -12 207 -12 C276 -12 329 17 355 39 C355 32 357 12 358 0 L500 0 C478 30 478 43 478 81 L478 346 C478 400 477 447 418 483 C374 509 316 515 268 515 C236 515 117 515 69 428 C53 399 51 378 49 353 L172 346 Z M358 194 C358 179 358 164 351 149 C338 119 295 91 234 91 C186 91 153 111 153 150 C153 203 210 213 253 219 C307 228 334 237 358 249 L358 194 Z " />
<glyph glyph-name="b" unicode="b" horiz-adv-x="583" d="M64 706 L64 0 L183 0 L183 52 C209 22 254 -15 320 -15 C439 -15 547 89 547 252 C547 411 441 515 328 515 C273 515 223 495 183 458 L183 706 L64 706 Z M423 254 C421 188 392 99 304 99 C294 99 213 99 189 194 C185 206 181 227 181 258 C181 365 245 406 299 406 C364 406 426 353 423 254 L423 254 Z " />
<glyph glyph-name="c" unicode="c" horiz-adv-x="500" d="M492 373 C466 431 402 515 276 515 C134 515 24 403 24 250 C24 92 133 -15 272 -15 C359 -15 458 33 497 141 L394 195 C379 155 350 97 274 97 C195 97 148 163 148 253 C148 353 203 408 272 408 C341 408 376 356 385 323 L492 373 Z " />
<glyph glyph-name="d" unicode="d" horiz-adv-x="583" d="M397 706 L397 459 C359 501 312 515 263 515 C120 515 36 388 36 239 C36 74 139 -15 258 -15 C310 -15 360 3 397 48 L397 0 L516 0 L516 706 L397 706 Z M396 247 C397 139 341 93 279 93 C162 93 161 243 161 252 C161 331 200 404 281 404 C321 404 351 385 369 358 C391 325 395 279 396 247 L396 247 Z " />
<glyph glyph-name="e" unicode="e" horiz-adv-x="562" d="M433 171 C418 150 385 102 303 102 C224 102 175 147 161 226 L531 226 C530 276 521 363 480 421 C470 436 415 515 283 515 C142 515 34 420 34 252 C34 68 160 -15 291 -15 C393 -15 473 29 535 112 L433 171 Z M165 314 C179 382 223 419 287 419 C340 419 388 392 399 314 L165 314 Z " />
<glyph glyph-name="f" unicode="f" horiz-adv-x="313" d="M308 415 L308 501 L199 501 L199 542 C199 557 203 572 207 579 C219 597 238 604 270 604 C287 604 298 603 308 601 L308 703 C286 705 264 707 240 707 C78 707 78 629 79 558 L79 501 L4 501 L4 415 L79 415 L79 0 L199 0 L199 415 L308 415 Z " />
<glyph glyph-name="g" unicode="g" horiz-adv-x="583" d="M401 500 L401 448 C387 466 349 515 259 515 C167 515 34 454 34 268 C34 109 133 29 251 29 C323 29 375 59 401 83 C401 22 401 -7 383 -32 C372 -48 345 -72 284 -72 C212 -72 191 -39 182 -10 L50 -10 C67 -90 102 -167 280 -167 C398 -167 460 -128 488 -91 C519 -49 519 -9 520 90 L520 500 L401 500 Z M404 266 C403 174 345 139 281 139 C210 139 157 184 157 271 C157 367 219 408 280 408 C361 408 405 347 404 266 L404 266 Z " />
<glyph glyph-name="h" unicode="h" horiz-adv-x="583" d="M62 706 L62 0 L182 0 L182 230 C182 286 182 294 186 310 C194 339 230 401 307 401 C373 401 390 356 394 346 C400 331 400 320 402 275 L402 0 L520 0 L520 309 C520 366 519 417 478 461 C451 491 403 515 341 515 C272 515 220 487 182 449 L182 706 L62 706 Z " />
<glyph glyph-name="i" unicode="i" horiz-adv-x="250" d="M65 699 L65 578 L184 578 L184 699 L65 699 Z M65 500 L65 0 L184 0 L184 500 L65 500 Z " />
<glyph glyph-name="j" unicode="j" horiz-adv-x="250" d="M67 700 L67 579 L185 579 L185 700 L67 700 Z M67 501 L67 44 C67 -15 67 -19 56 -32 C43 -48 12 -51 1 -51 L1 -161 C16 -162 19 -162 28 -162 C92 -162 161 -146 180 -88 C184 -77 186 -52 186 -4 L186 501 L67 501 Z " />
<glyph glyph-name="k" unicode="k" horiz-adv-x="542" d="M64 706 L64 0 L183 0 L183 155 L253 224 L404 0 L550 0 L340 309 L531 500 L378 500 L183 309 L183 706 L64 706 Z " />
<glyph glyph-name="l" unicode="l" horiz-adv-x="250" d="M65 706 L65 0 L186 0 L186 706 L65 706 Z " />
<glyph glyph-name="m" unicode="m" horiz-adv-x="875" d="M64 0 L183 0 L183 209 C183 258 184 305 205 344 C226 381 261 402 297 402 C339 402 365 376 374 343 C378 328 378 315 378 279 L378 0 L497 0 L497 235 C497 278 500 318 523 355 C539 381 570 402 608 402 C699 402 692 323 692 276 L692 0 L811 0 L811 315 C811 367 812 420 772 464 C738 501 690 515 640 515 C552 515 500 466 480 438 C447 497 388 515 341 515 C294 515 223 494 183 444 L183 500 L64 500 L64 0 Z " />
<glyph glyph-name="n" unicode="n" horiz-adv-x="562" d="M63 0 L184 0 L184 217 C184 254 184 305 203 342 C220 375 256 398 295 398 C334 398 366 375 377 331 C381 317 381 292 381 255 L381 0 L500 0 L500 294 C500 359 500 413 469 455 C444 489 395 515 338 515 C299 515 253 502 223 480 C202 466 190 450 184 441 L184 500 L63 500 L63 0 Z " />
<glyph glyph-name="o" unicode="o" horiz-adv-x="583" d="M549 252 C548 418 429 515 290 515 C141 515 35 405 35 252 C35 99 139 -15 295 -15 C446 -15 549 96 549 252 L549 252 Z M423 254 C426 171 382 95 295 95 C223 95 160 152 160 255 C160 347 214 407 289 407 C373 407 421 337 423 254 L423 254 Z " />
<glyph glyph-name="p" unicode="p" horiz-adv-x="583" d="M65 -163 L184 -163 L184 41 C209 18 252 -15 321 -15 C455 -15 548 96 548 245 C548 383 468 515 321 515 C243 515 203 474 184 454 L184 500 L65 500 L65 -163 Z M183 253 C185 360 248 400 303 400 C339 400 426 376 426 251 C426 138 363 98 305 98 C238 98 181 150 183 253 L183 253 Z " />
<glyph glyph-name="q" unicode="q" horiz-adv-x="562" d="M389 500 L389 447 C358 491 306 515 251 515 C146 515 25 429 25 245 C25 98 106 -15 245 -15 C328 -15 370 27 389 47 L389 -163 L508 -163 L508 500 L389 500 Z M390 249 C391 148 339 95 268 95 C189 95 148 160 148 245 C148 354 211 398 268 398 C314 398 388 367 390 249 L390 249 Z " />
<glyph glyph-name="r" unicode="r" horiz-adv-x="354" d="M64 500 L64 0 L180 0 L180 185 C180 268 181 319 232 358 C269 386 314 387 340 388 L340 511 C228 514 195 455 180 429 L180 500 L64 500 Z " />
<glyph glyph-name="s" unicode="s" horiz-adv-x="521" d="M22 74 C85 13 173 -15 262 -15 C417 -15 487 78 487 156 C487 198 467 238 436 262 C404 287 375 292 271 311 C207 322 170 332 170 368 C170 394 196 419 253 419 C341 419 375 370 389 343 L474 422 C464 434 448 451 423 467 C389 491 334 515 258 515 C121 515 44 437 44 352 C44 307 66 238 185 210 C203 205 285 190 302 186 C318 183 354 175 354 143 C354 118 324 84 255 84 C186 84 141 111 111 148 L22 74 Z " />
<glyph glyph-name="t" unicode="t" horiz-adv-x="313" d="M304 414 L304 500 L197 500 L197 677 L77 677 L77 500 L4 500 L4 414 L77 414 L77 159 C77 109 77 77 85 57 C108 -4 192 -4 217 -4 C244 -4 268 -2 304 4 L304 105 C287 100 272 99 254 99 C197 99 197 126 197 188 L197 414 L304 414 Z " />
<glyph glyph-name="u" unicode="u" horiz-adv-x="583" d="M397 500 L397 288 C396 218 395 186 377 153 C361 127 330 100 280 100 C236 100 200 119 187 163 C183 176 183 193 183 213 L183 500 L62 500 L62 211 C62 136 62 89 96 46 C114 23 153 -12 235 -12 C327 -12 376 31 397 51 L397 0 L517 0 L517 500 L397 500 Z " />
<glyph glyph-name="v" unicode="v" horiz-adv-x="479" d="M343 500 L241 156 L137 500 L13 500 L175 0 L304 0 L468 500 L343 500 Z " />
<glyph glyph-name="w" unicode="w" horiz-adv-x="750" d="M521 158 L429 500 L322 500 L229 158 L142 500 L17 500 L162 0 L280 0 L376 319 L466 0 L585 0 L735 500 L610 500 L521 158 Z " />
<glyph glyph-name="x" unicode="x" horiz-adv-x="500" d="M332 500 L252 374 L170 500 L29 500 L181 268 L9 0 L152 0 L252 158 L356 0 L494 0 L323 268 L474 500 L332 500 Z " />
<glyph glyph-name="y" unicode="y" horiz-adv-x="479" d="M347 500 L252 127 L141 500 L12 500 L193 -10 C193 -20 179 -42 165 -51 C146 -64 120 -64 111 -64 C99 -64 90 -63 79 -61 L79 -166 C93 -168 112 -172 151 -172 C244 -172 281 -135 315 -30 L343 64 L470 500 L347 500 Z " />
<glyph glyph-name="z" unicode="z" horiz-adv-x="500" d="M58 500 L58 393 L301 393 L31 92 L31 0 L459 0 L459 106 L194 106 L459 407 L459 500 L58 500 Z " />
<glyph glyph-name="braceleft" unicode="&#x7b;" horiz-adv-x="354" d="M41 316 C74 304 112 287 116 197 L116 172 L116 105 C117 36 117 -15 159 -53 C195 -85 241 -89 350 -91 L350 -28 C257 -2 247 34 247 140 L247 156 C247 224 245 255 232 284 C212 326 179 337 150 347 C203 363 241 386 245 487 C246 508 247 544 247 553 L246 554 C246 615 248 647 264 671 C286 707 322 715 350 722 L350 786 C225 785 189 778 155 744 C121 709 116 671 115 576 L115 540 C115 482 114 453 102 427 C85 392 65 386 41 379 L41 316 Z " />
<glyph glyph-name="bar" unicode="&#x7c;" horiz-adv-x="229" d="M166 750 L63 750 L63 -250 L166 -250 L166 750 Z " />
<glyph glyph-name="braceright" unicode="&#x7d;" horiz-adv-x="354" d="M313 379 C280 391 242 408 238 498 L238 523 L238 590 C237 659 237 710 195 748 C159 780 113 784 4 786 L4 723 C97 697 107 661 107 555 L107 539 C107 471 109 440 122 411 C142 369 175 358 204 348 C151 332 113 309 109 208 C108 187 107 151 107 142 L108 141 C108 80 106 48 90 24 C68 -12 32 -20 4 -27 L4 -91 C129 -90 165 -83 199 -49 C233 -14 238 24 239 119 L239 155 C239 213 240 242 252 268 C269 303 289 309 313 316 L313 379 Z " />
<glyph glyph-name="asciitilde" unicode="&#x7e;" horiz-adv-x="667" d="M539 377 C514 347 482 315 441 315 C416 315 389 327 368 336 L334 352 C291 372 264 384 227 384 C142 384 97 317 82 295 L130 208 C173 258 189 276 229 276 C255 276 278 266 306 253 L335 239 C375 220 403 207 438 207 C510 207 560 262 585 288 L539 377 Z " />
<glyph glyph-name="exclamdown" unicode="&#xa1;" horiz-adv-x="250" d="M40 271 L40 0 L171 0 L171 271 L134 531 L78 531 L40 271 Z M171 568 L171 706 L40 706 L40 568 L171 568 Z " />
<glyph glyph-name="cent" unicode="&#xa2;" horiz-adv-x="500" d="M234 621 L234 522 C135 503 22 426 22 256 C22 175 48 114 82 72 C135 7 197 -3 233 -9 L233 -108 L311 -108 L311 -8 C366 -3 416 24 451 67 C475 96 487 126 494 143 L391 198 C373 124 328 110 311 105 L311 413 C325 409 356 402 383 334 L489 384 C454 449 412 510 313 522 L313 621 L234 621 Z M233 109 C196 120 145 153 145 262 C145 287 146 333 177 372 C196 397 218 407 233 414 L233 109 Z " />
<glyph glyph-name="sterling" unicode="&#xa3;" horiz-adv-x="625" d="M465 232 L465 209 C465 180 464 114 412 114 C388 114 369 126 343 143 C347 161 350 177 350 204 C350 229 347 251 343 276 L421 276 L421 382 L297 382 C279 404 248 442 248 491 C248 551 296 584 342 584 C386 584 441 550 441 477 C441 469 441 456 436 434 L566 434 C568 489 570 559 527 616 C494 659 430 695 345 695 C268 695 116 655 116 502 C116 436 145 399 159 382 L79 382 L79 276 L210 276 C234 255 237 230 237 218 C237 211 236 206 235 201 C211 209 186 215 161 215 C104 215 49 181 49 105 C49 42 95 -8 169 -8 C216 -8 247 10 298 39 L344 16 C380 -1 414 -8 441 -8 C525 -8 555 46 571 87 C593 143 595 195 594 232 L465 232 Z M210 106 C202 90 189 79 171 79 C153 79 144 92 144 101 C144 109 151 123 171 123 C188 123 199 115 210 106 L210 106 Z " />
<glyph glyph-name="currency" unicode="&#xa4;" horiz-adv-x="667" d="M642 569 L564 646 L486 569 C444 594 409 616 336 616 C259 616 222 594 180 569 L102 646 L26 569 L103 492 C77 449 56 415 56 340 C56 263 77 229 104 186 L24 108 L101 31 L180 109 C206 92 252 62 334 62 C408 62 444 84 485 108 L563 29 L641 106 L562 185 C583 216 610 257 610 342 C610 415 588 451 563 492 L642 569 Z M508 339 C507 235 430 162 333 162 C241 162 158 234 158 338 C158 449 242 516 334 516 C421 516 509 448 508 339 L508 339 Z " />
<glyph glyph-name="yen" unicode="&#xa5;" horiz-adv-x="604" d="M301 401 L152 686 L3 686 L147 430 L58 430 L58 331 L203 331 L234 270 L58 270 L58 171 L235 171 L235 0 L364 0 L364 171 L540 171 L540 270 L364 270 L398 331 L540 331 L540 430 L456 430 L601 686 L454 686 L301 401 Z " />
<glyph glyph-name="brokenbar" unicode="&#xa6;" horiz-adv-x="229" d="M63 -175 L166 -175 L166 175 L63 175 L63 -175 Z M166 325 L166 675 L63 675 L63 325 L166 325 Z " />
<glyph glyph-name="section" unicode="&#xa7;" horiz-adv-x="646" d="M290 150 C311 140 333 130 355 121 C373 113 403 100 403 76 C403 74 403 35 336 35 C299 35 237 40 149 96 L91 14 C144 -24 237 -65 338 -65 C482 -65 538 15 538 78 C538 126 511 155 497 170 C603 221 604 317 604 330 C604 443 500 489 396 536 L304 576 C269 590 244 601 244 624 C244 656 298 659 315 659 C373 659 425 634 484 607 L540 692 C458 744 361 759 305 759 C197 759 110 705 110 613 C110 566 132 542 149 525 C68 479 43 428 43 376 C43 264 164 205 223 179 L290 150 Z M256 455 C261 453 310 434 319 431 C322 430 400 398 432 374 C459 355 470 336 470 308 C470 269 440 240 426 229 L397 245 C373 256 328 278 256 310 C220 325 170 348 170 394 C170 414 181 436 196 449 C208 459 219 463 230 467 L256 455 Z " />
<glyph glyph-name="dieresis" unicode="&#xa8;" horiz-adv-x="271" d="M-22 706 L-22 587 L91 587 L91 706 L-22 706 Z M179 706 L179 587 L292 587 L292 706 L179 706 Z " />
<glyph glyph-name="copyright" unicode="&#xa9;" horiz-adv-x="833" d="M773 352 C773 556 616 709 418 709 C219 709 61 553 61 353 C61 142 232 -3 416 -3 C549 -3 659 67 716 156 C751 212 773 282 773 352 L773 352 Z M741 352 C739 162 590 29 418 29 C233 29 93 177 93 352 C93 535 238 677 418 677 C607 677 743 527 741 352 L741 352 Z M546 264 C527 244 493 209 426 209 C347 209 282 263 282 355 C282 439 339 501 424 501 C489 501 525 464 546 442 L617 511 C586 543 533 598 425 598 C278 598 182 491 182 354 C182 221 272 112 425 112 C536 112 591 171 618 199 L546 264 Z " />
<glyph glyph-name="ordfeminine" unicode="&#xaa;" horiz-adv-x="333" d="M290 636 C288 656 287 675 263 691 C242 707 207 714 175 714 C68 714 56 656 52 625 L122 620 C122 635 123 661 175 661 C223 661 223 634 222 619 C208 613 203 612 154 602 C101 591 39 579 39 510 C39 455 83 420 137 420 C169 420 200 431 227 448 C228 440 229 437 234 426 L302 426 C293 441 291 447 290 466 L290 636 Z M221 536 C221 523 221 509 207 498 C191 484 164 481 152 481 C125 481 112 493 112 510 C112 536 143 543 167 547 C182 550 186 551 221 560 L221 536 Z " />
<glyph glyph-name="guillemotleft" unicode="&#xab;" horiz-adv-x="437" d="M201 132 L201 244 L115 314 L201 385 L201 499 L59 385 L59 244 L201 132 Z M383 132 L383 244 L297 314 L383 385 L383 499 L241 385 L241 244 L383 132 Z " />
<glyph glyph-name="logicalnot" unicode="&#xac;" horiz-adv-x="667" d="M564 0 L667 0 L667 345 L0 345 L0 242 L564 242 L564 0 Z " />
<glyph glyph-name="registered" unicode="&#xae;" horiz-adv-x="833" d="M258 583 L258 129 L353 129 L353 326 L376 326 C454 324 459 311 471 228 C476 192 481 158 495 129 L604 129 C582 170 576 211 567 267 C557 332 537 343 510 357 C526 363 596 385 596 464 C596 505 574 554 519 572 C490 582 459 582 413 583 L258 583 Z M353 510 L396 510 C452 510 458 510 473 504 C496 494 501 471 501 458 C501 401 445 402 410 402 L353 402 L353 510 Z M773 351 C774 546 623 709 416 709 C224 709 61 558 61 353 C61 142 231 -3 416 -3 C617 -3 772 154 773 351 L773 351 Z M741 352 C740 172 600 29 417 29 C238 29 93 171 93 353 C93 531 235 677 418 677 C603 677 742 529 741 352 L741 352 Z " />
<glyph glyph-name="macron" unicode="&#xaf;" horiz-adv-x="271" d="M-35 586 L306 586 L306 677 L-35 677 L-35 586 Z " />
<glyph glyph-name="degree" unicode="&#xb0;" horiz-adv-x="354" d="M5 583 C5 488 82 411 177 411 C272 411 349 488 349 583 C349 678 272 755 177 755 C82 755 5 678 5 583 L5 583 Z M105 583 C105 623 137 655 177 655 C217 655 249 623 249 583 C249 543 217 511 177 511 C137 511 105 543 105 583 L105 583 Z " />
<glyph glyph-name="plusminus" unicode="&#xb1;" horiz-adv-x="667" d="M386 374 L625 374 L625 477 L386 477 L386 702 L283 702 L283 477 L42 477 L42 374 L283 374 L283 148 L386 148 L386 374 Z M625 103 L42 103 L42 0 L625 0 L625 103 Z " />
<glyph glyph-name="twosuperior" unicode="&#xb2;" horiz-adv-x="375" d="M37 232 L338 232 L338 303 L151 303 C262 393 329 449 329 544 C329 614 285 681 186 681 C164 681 86 681 51 598 C40 573 38 545 35 508 L121 501 C125 558 128 602 180 602 C210 602 236 584 236 540 C236 482 195 438 176 418 C115 352 58 313 37 298 L37 232 Z " />
<glyph glyph-name="threesuperior" unicode="&#xb3;" horiz-adv-x="375" d="M145 502 L145 431 L173 431 C197 429 247 426 247 368 C247 331 224 298 179 298 C113 298 110 355 108 380 L21 380 C22 350 23 312 50 278 C69 253 110 225 178 225 C278 225 336 286 336 366 C336 440 288 457 256 469 C276 476 327 493 327 560 C327 620 277 681 187 681 C127 681 87 654 67 630 C43 603 36 571 32 551 L117 531 C122 561 129 605 181 605 C204 605 238 594 238 551 C238 503 189 502 172 502 L145 502 Z " />
<glyph glyph-name="acute" unicode="&#xb4;" horiz-adv-x="271" d="M86 706 L36 573 L126 573 L234 706 L86 706 Z " />
<glyph glyph-name="mu" unicode="&#xb5;" horiz-adv-x="583" d="M397 1 L517 1 L517 501 L397 501 L397 281 C397 193 393 101 288 101 C186 101 183 201 183 242 L183 501 L62 501 L62 -162 L183 -162 L183 39 C197 21 224 -11 281 -11 C340 -11 365 17 397 52 L397 1 Z " />
<glyph glyph-name="paragraph" unicode="&#xb6;" horiz-adv-x="667" d="M309 706 C262 705 187 703 130 633 C114 614 85 572 85 499 C85 452 98 404 129 367 C165 325 204 315 241 306 L241 -167 L312 -167 L312 640 L443 640 L443 -167 L514 -167 L514 640 L549 640 L549 706 L309 706 Z " />
<glyph glyph-name="periodcentered" unicode="&#xb7;" horiz-adv-x="208" d="M37 383 L37 246 L169 246 L169 383 L37 383 Z " />
<glyph glyph-name="cedilla" unicode="&#xb8;" horiz-adv-x="271" d="M135 12 L34 -92 L34 -106 C42 -105 48 -105 55 -105 C89 -105 120 -107 120 -130 C120 -153 83 -156 56 -156 C50 -156 47 -156 40 -154 L40 -185 C51 -186 61 -187 82 -187 C114 -187 236 -187 236 -109 C236 -60 178 -43 135 -46 L180 12 L135 12 Z " />
<glyph glyph-name="onesuperior" unicode="&#xb9;" horiz-adv-x="375" d="M65 535 L128 534 C156 533 173 533 173 507 L173 490 L173 233 L257 233 L257 680 L187 680 C176 599 118 596 86 595 L65 594 L65 535 Z " />
<glyph glyph-name="ordmasculine" unicode="&#xba;" horiz-adv-x="333" d="M309 563 C310 655 249 714 167 714 C81 714 24 648 24 564 C24 477 86 415 165 415 C249 415 307 476 309 563 L309 563 Z M97 565 C98 634 141 652 169 652 C211 652 238 616 238 567 C238 511 207 478 166 478 C131 478 96 505 97 565 L97 565 Z " />
<glyph glyph-name="guillemotright" unicode="&#xbb;" horiz-adv-x="437" d="M235 499 L235 387 L321 317 L235 246 L235 132 L377 246 L377 387 L235 499 Z M53 499 L53 387 L139 317 L53 246 L53 132 L195 246 L195 387 L53 499 Z " />
<glyph glyph-name="onequarter" unicode="&#xbc;" horiz-adv-x="875" d="M65 535 L128 534 C156 534 173 533 173 507 L173 233 L257 233 L257 680 L187 680 C176 599 118 596 86 595 L65 594 L65 535 Z M522 164 L522 101 L716 101 L716 0 L796 0 L796 100 L855 100 L855 171 L799 171 L799 441 L716 441 L522 164 Z M612 172 L721 341 L719 172 L612 172 Z M238 -5 L307 -37 L621 646 L553 678 L238 -5 Z " />
<glyph glyph-name="onehalf" unicode="&#xbd;" horiz-adv-x="875" d="M65 535 L128 534 C156 534 173 533 173 507 L173 232 L257 232 L257 680 L187 680 C176 599 118 596 86 595 L65 594 L65 535 Z M537 0 L838 0 L838 71 L651 71 C762 161 829 217 829 312 C829 382 785 449 686 449 C664 449 586 449 551 366 C540 341 538 313 535 276 L621 269 C625 326 628 370 680 370 C710 370 736 352 736 308 C736 250 695 206 676 186 C615 120 558 81 537 66 L537 0 Z M230 -5 L299 -37 L612 646 L545 678 L230 -5 Z " />
<glyph glyph-name="threequarters" unicode="&#xbe;" horiz-adv-x="875" d="M145 502 L145 431 L173 431 C197 429 247 426 247 368 C247 331 224 298 179 298 C113 298 110 355 108 380 L21 380 C22 350 23 312 50 278 C69 253 110 225 178 225 C278 225 336 286 336 366 C336 440 288 457 256 469 C276 476 327 493 327 560 C327 620 277 681 187 681 C127 681 87 654 67 630 C43 603 36 571 32 551 L117 531 C122 561 129 605 181 605 C204 605 238 594 238 551 C238 503 189 502 172 502 L145 502 Z M522 164 L522 101 L716 101 L716 0 L796 0 L796 100 L854 100 L854 171 L798 171 L798 442 L715 442 L522 164 Z M611 172 L720 341 L718 172 L611 172 Z M262 -5 L331 -37 L644 646 L576 677 L262 -5 Z " />
<glyph glyph-name="questiondown" unicode="&#xbf;" horiz-adv-x="562" d="M387 234 C385 170 353 102 272 102 C211 102 164 145 164 198 C164 211 167 249 211 284 C228 296 245 305 261 318 C310 357 321 389 321 525 L204 525 C205 517 206 510 206 496 C206 432 185 413 168 399 C149 383 127 371 108 355 C74 329 27 282 27 196 C27 82 114 -12 265 -12 C367 -12 496 36 508 219 L387 234 Z M328 569 L328 706 L195 706 L195 569 L328 569 Z " />
<glyph glyph-name="Agrave" unicode="&#xc0;" horiz-adv-x="646" d="M495 0 L636 0 L395 706 L245 706 L7 0 L148 0 L189 138 L454 138 L495 0 Z M224 253 L322 578 L419 253 L224 253 Z M185 895 L292 774 L381 774 L327 895 L185 895 Z " />
<glyph glyph-name="Aacute" unicode="&#xc1;" horiz-adv-x="646" d="M495 0 L636 0 L395 706 L245 706 L7 0 L148 0 L189 138 L454 138 L495 0 Z M224 253 L322 578 L419 253 L224 253 Z M268 775 L357 775 L464 895 L321 895 L268 775 Z " />
<glyph glyph-name="Acircumflex" unicode="&#xc2;" horiz-adv-x="646" d="M495 0 L636 0 L395 706 L245 706 L7 0 L148 0 L189 138 L454 138 L495 0 Z M224 253 L322 578 L419 253 L224 253 Z M265 895 L165 773 L282 773 L324 829 L366 773 L487 773 L383 895 L265 895 Z " />
<glyph glyph-name="Atilde" unicode="&#xc3;" horiz-adv-x="646" d="M495 0 L636 0 L395 706 L245 706 L7 0 L148 0 L189 138 L454 138 L495 0 Z M224 253 L322 578 L419 253 L224 253 Z M430 895 C425 875 424 870 412 863 C404 858 398 857 393 857 C378 857 346 869 324 878 C305 886 277 895 252 895 C203 895 179 858 172 847 C155 821 151 798 148 769 L226 769 C231 793 241 807 262 807 C279 807 301 798 321 791 C346 781 378 768 407 768 C432 768 461 778 481 809 C502 839 506 875 508 895 L430 895 Z " />
<glyph glyph-name="Adieresis" unicode="&#xc4;" horiz-adv-x="646" d="M495 0 L636 0 L395 706 L245 706 L7 0 L148 0 L189 138 L454 138 L495 0 Z M224 253 L322 578 L419 253 L224 253 Z M171 895 L171 772 L283 772 L283 895 L171 895 Z M371 895 L371 772 L485 772 L485 895 L371 895 Z " />
<glyph glyph-name="Aring" unicode="&#xc5;" horiz-adv-x="646" d="M495 0 L636 0 L395 706 L245 706 L7 0 L148 0 L189 138 L454 138 L495 0 Z M224 253 L322 578 L419 253 L224 253 Z M326 963 C270 963 225 917 225 862 C225 806 270 760 326 760 C383 760 428 806 428 862 C428 917 383 963 326 963 L326 963 Z M326 903 C350 903 368 884 368 862 C368 839 350 820 326 820 C303 820 284 838 284 862 C284 884 303 903 326 903 L326 903 Z " />
<glyph glyph-name="AE" unicode="&#xc6;" horiz-adv-x="1042" d="M635 304 L955 304 L955 420 L635 420 L635 587 L1003 587 L1003 706 L424 706 L6 0 L160 0 L254 165 L502 165 L502 0 L1018 0 L1018 120 L635 120 L635 304 Z M322 284 L502 606 L502 284 L322 284 Z " />
<glyph glyph-name="Ccedilla" unicode="&#xc7;" horiz-adv-x="688" d="M259 -92 L259 -106 C267 -105 273 -105 280 -105 C314 -105 345 -107 345 -129 C345 -152 308 -155 281 -155 C274 -155 272 -155 265 -153 L265 -184 C276 -185 286 -186 307 -186 C339 -186 461 -186 461 -109 C461 -60 403 -43 360 -46 L383 -15 C464 -5 538 4 611 92 C646 134 663 175 672 197 L548 249 C542 233 534 208 511 177 C482 139 442 107 376 107 C265 107 180 197 180 357 C180 508 260 603 375 603 C448 603 487 563 502 541 C520 514 526 485 528 471 L659 506 C644 555 591 724 372 724 C192 724 37 595 37 355 C37 265 58 175 112 104 C182 11 258 -2 334 -15 L259 -92 Z " />
<glyph glyph-name="Egrave" unicode="&#xc8;" horiz-adv-x="625" d="M580 588 L580 706 L78 706 L78 0 L605 0 L605 119 L208 119 L208 308 L548 308 L548 422 L208 422 L208 588 L580 588 Z M174 895 L281 774 L370 774 L316 895 L174 895 Z " />
<glyph glyph-name="Eacute" unicode="&#xc9;" horiz-adv-x="625" d="M580 588 L580 706 L78 706 L78 0 L605 0 L605 119 L208 119 L208 308 L548 308 L548 422 L208 422 L208 588 L580 588 Z M257 775 L346 775 L453 895 L310 895 L257 775 Z " />
<glyph glyph-name="Ecircumflex" unicode="&#xca;" horiz-adv-x="625" d="M580 588 L580 706 L78 706 L78 0 L605 0 L605 119 L208 119 L208 308 L548 308 L548 422 L208 422 L208 588 L580 588 Z M254 895 L154 773 L271 773 L313 829 L355 773 L476 773 L372 895 L254 895 Z " />
<glyph glyph-name="Edieresis" unicode="&#xcb;" horiz-adv-x="625" d="M580 588 L580 706 L78 706 L78 0 L605 0 L605 119 L208 119 L208 308 L548 308 L548 422 L208 422 L208 588 L580 588 Z M156 895 L156 772 L268 772 L268 895 L156 895 Z M356 895 L356 772 L470 772 L470 895 L356 895 Z " />
<glyph glyph-name="Igrave" unicode="&#xcc;" horiz-adv-x="292" d="M80 706 L80 0 L210 0 L210 706 L80 706 Z M8 895 L115 774 L204 774 L150 895 L8 895 Z " />
<glyph glyph-name="Iacute" unicode="&#xcd;" horiz-adv-x="292" d="M80 706 L80 0 L210 0 L210 706 L80 706 Z M91 775 L180 775 L287 895 L144 895 L91 775 Z " />
<glyph glyph-name="Icircumflex" unicode="&#xce;" horiz-adv-x="292" d="M80 706 L80 0 L210 0 L210 706 L80 706 Z M88 895 L-12 773 L105 773 L147 829 L189 773 L310 773 L206 895 L88 895 Z " />
<glyph glyph-name="Idieresis" unicode="&#xcf;" horiz-adv-x="292" d="M80 706 L80 0 L210 0 L210 706 L80 706 Z M-10 895 L-10 772 L102 772 L102 895 L-10 895 Z M190 895 L190 772 L304 772 L304 895 L190 895 Z " />
<glyph glyph-name="Eth" unicode="&#xd0;" horiz-adv-x="708" d="M71 416 L3 416 L3 326 L71 326 L71 0 L277 0 C398 0 522 0 606 119 C646 176 669 257 669 347 C669 548 563 666 434 696 C391 706 349 706 303 706 L71 706 L71 416 Z M203 586 L336 585 C408 584 455 552 483 516 C527 459 529 381 529 346 C529 199 475 155 424 135 C394 124 359 119 259 119 L203 119 L203 325 L357 325 L357 415 L203 415 L203 586 Z " />
<glyph glyph-name="Ntilde" unicode="&#xd1;" horiz-adv-x="708" d="M513 207 L201 706 L82 706 L82 0 L211 0 L203 495 L512 0 L627 0 L627 706 L497 706 L513 207 Z M461 895 C456 875 455 870 443 863 C435 858 429 857 424 857 C409 857 377 869 355 878 C336 886 308 895 283 895 C234 895 210 858 203 847 C186 821 182 798 179 769 L257 769 C262 793 272 807 293 807 C310 807 332 798 352 791 C377 781 409 768 438 768 C463 768 492 778 512 809 C533 839 537 875 539 895 L461 895 Z " />
<glyph glyph-name="Ograve" unicode="&#xd2;" horiz-adv-x="771" d="M725 353 C726 594 562 724 387 724 C194 724 48 568 48 352 C48 263 72 171 142 90 C214 7 296 -18 385 -18 C602 -18 724 151 725 353 L725 353 Z M593 338 C590 168 477 104 389 104 C272 104 184 199 184 358 C184 505 265 603 386 603 C525 603 596 476 593 338 L593 338 Z M247 895 L354 774 L443 774 L389 895 L247 895 Z " />
<glyph glyph-name="Oacute" unicode="&#xd3;" horiz-adv-x="771" d="M725 353 C726 594 562 724 387 724 C194 724 48 568 48 352 C48 263 72 171 142 90 C214 7 296 -18 385 -18 C602 -18 724 151 725 353 L725 353 Z M593 338 C590 168 477 104 389 104 C272 104 184 199 184 358 C184 505 265 603 386 603 C525 603 596 476 593 338 L593 338 Z M330 775 L419 775 L526 895 L383 895 L330 775 Z " />
<glyph glyph-name="Ocircumflex" unicode="&#xd4;" horiz-adv-x="771" d="M725 353 C726 594 562 724 387 724 C194 724 48 568 48 352 C48 263 72 171 142 90 C214 7 296 -18 385 -18 C602 -18 724 151 725 353 L725 353 Z M593 338 C590 168 477 104 389 104 C272 104 184 199 184 358 C184 505 265 603 386 603 C525 603 596 476 593 338 L593 338 Z M327 895 L227 773 L344 773 L386 829 L428 773 L549 773 L445 895 L327 895 Z " />
<glyph glyph-name="Otilde" unicode="&#xd5;" horiz-adv-x="771" d="M725 353 C726 594 562 724 387 724 C194 724 48 568 48 352 C48 263 72 171 142 90 C214 7 296 -18 385 -18 C602 -18 724 151 725 353 L725 353 Z M593 338 C590 168 477 104 389 104 C272 104 184 199 184 358 C184 505 265 603 386 603 C525 603 596 476 593 338 L593 338 Z M492 895 C487 875 486 870 474 863 C466 858 460 857 455 857 C440 857 408 869 386 878 C367 886 339 895 314 895 C265 895 241 858 234 847 C217 821 213 798 210 769 L288 769 C293 793 303 807 324 807 C341 807 363 798 383 791 C408 781 440 768 469 768 C494 768 523 778 543 809 C564 839 568 875 570 895 L492 895 Z " />
<glyph glyph-name="Odieresis" unicode="&#xd6;" horiz-adv-x="771" d="M725 353 C726 594 562 724 387 724 C194 724 48 568 48 352 C48 263 72 171 142 90 C214 7 296 -18 385 -18 C602 -18 724 151 725 353 L725 353 Z M593 338 C590 168 477 104 389 104 C272 104 184 199 184 358 C184 505 265 603 386 603 C525 603 596 476 593 338 L593 338 Z M230 895 L230 772 L342 772 L342 895 L230 895 Z M430 895 L430 772 L544 772 L544 895 L430 895 Z " />
<glyph glyph-name="multiply" unicode="&#xd7;" horiz-adv-x="667" d="M599 100 L407 292 L599 484 L524 558 L333 366 L142 558 L68 484 L259 292 L68 100 L142 26 L333 218 L524 26 L599 100 Z " />
<glyph glyph-name="Oslash" unicode="&#xd8;" horiz-adv-x="771" d="M620 628 C576 670 508 724 390 724 C195 724 46 578 46 349 C46 260 68 204 94 160 L24 98 L81 32 L144 89 C189 40 252 -18 385 -18 C619 -18 727 176 727 351 C727 423 710 494 674 557 L741 616 L682 683 L620 628 Z M200 255 C180 297 179 349 179 364 C179 492 266 605 390 605 C465 605 505 565 525 545 L200 255 Z M571 466 C588 427 594 388 594 345 C594 202 501 103 385 103 C291 103 255 160 244 177 L571 466 Z " />
<glyph glyph-name="Ugrave" unicode="&#xd9;" horiz-adv-x="729" d="M516 706 L516 279 C516 220 516 180 477 145 C438 111 385 110 364 110 C322 110 248 118 221 186 C211 213 212 242 212 272 L212 706 L80 706 L80 285 C81 197 81 175 90 144 C106 91 151 30 235 1 C275 -13 317 -18 360 -18 C408 -18 501 -12 573 51 C648 115 648 181 649 261 L649 706 L516 706 Z M227 895 L334 774 L423 774 L369 895 L227 895 Z " />
<glyph glyph-name="Uacute" unicode="&#xda;" horiz-adv-x="729" d="M516 706 L516 279 C516 220 516 180 477 145 C438 111 385 110 364 110 C322 110 248 118 221 186 C211 213 212 242 212 272 L212 706 L80 706 L80 285 C81 197 81 175 90 144 C106 91 151 30 235 1 C275 -13 317 -18 360 -18 C408 -18 501 -12 573 51 C648 115 648 181 649 261 L649 706 L516 706 Z M310 775 L399 775 L506 895 L363 895 L310 775 Z " />
<glyph glyph-name="Ucircumflex" unicode="&#xdb;" horiz-adv-x="729" d="M516 706 L516 279 C516 220 516 180 477 145 C438 111 385 110 364 110 C322 110 248 118 221 186 C211 213 212 242 212 272 L212 706 L80 706 L80 285 C81 197 81 175 90 144 C106 91 151 30 235 1 C275 -13 317 -18 360 -18 C408 -18 501 -12 573 51 C648 115 648 181 649 261 L649 706 L516 706 Z M307 895 L207 773 L324 773 L366 829 L408 773 L529 773 L425 895 L307 895 Z " />
<glyph glyph-name="Udieresis" unicode="&#xdc;" horiz-adv-x="729" d="M516 706 L516 279 C516 220 516 180 477 145 C438 111 385 110 364 110 C322 110 248 118 221 186 C211 213 212 242 212 272 L212 706 L80 706 L80 285 C81 197 81 175 90 144 C106 91 151 30 235 1 C275 -13 317 -18 360 -18 C408 -18 501 -12 573 51 C648 115 648 181 649 261 L649 706 L516 706 Z M208 895 L208 772 L320 772 L320 895 L208 895 Z M408 895 L408 772 L522 772 L522 895 L408 895 Z " />
<glyph glyph-name="Yacute" unicode="&#xdd;" horiz-adv-x="625" d="M614 706 L467 706 L312 413 L159 706 L10 706 L246 279 L246 0 L376 0 L376 279 L614 706 Z M257 775 L346 775 L453 895 L310 895 L257 775 Z " />
<glyph glyph-name="Thorn" unicode="&#xde;" horiz-adv-x="625" d="M82 0 L215 0 L215 139 L318 139 C361 139 398 139 437 148 C563 176 607 277 607 371 C607 514 510 576 441 595 C400 606 359 606 320 606 L215 606 L215 706 L82 706 L82 0 Z M315 493 C358 493 404 492 437 464 C449 453 472 426 472 374 C472 349 467 274 385 254 C362 248 338 248 310 248 L215 248 L215 493 L315 493 Z " />
<glyph glyph-name="germandbls" unicode="&#xdf;" horiz-adv-x="562" d="M65 0 L186 0 L186 474 C187 533 187 563 212 587 C226 600 250 610 280 610 C336 610 365 576 365 536 C365 494 333 452 261 452 C249 452 241 453 229 454 L229 364 C266 366 400 371 400 227 C400 127 334 101 297 101 C265 101 239 117 229 123 L229 7 C267 -7 317 -8 325 -8 C458 -8 527 88 527 218 C527 312 489 362 461 384 C446 396 432 402 411 412 C450 425 501 464 501 540 C501 650 395 718 277 718 C173 718 82 663 68 569 C66 557 66 551 65 493 L65 0 Z " />
<glyph glyph-name="agrave" unicode="&#xe0;" horiz-adv-x="542" d="M172 346 C172 360 171 374 184 390 C196 406 223 422 273 422 C356 422 358 371 358 346 C314 332 306 330 203 309 C155 300 78 284 42 212 C32 192 26 169 26 144 C26 58 94 -12 207 -12 C276 -12 329 17 355 39 C355 32 357 12 358 0 L500 0 C478 30 478 43 478 81 L478 346 C478 400 477 447 418 483 C374 509 316 515 268 515 C236 515 117 515 69 428 C53 399 51 378 49 353 L172 346 Z M358 194 C358 179 358 164 351 149 C338 119 295 91 234 91 C186 91 153 111 153 150 C153 203 210 213 253 219 C307 228 334 237 358 249 L358 194 Z M165 707 L275 573 L364 573 L312 707 L165 707 Z " />
<glyph glyph-name="aacute" unicode="&#xe1;" horiz-adv-x="542" d="M172 346 C172 360 171 374 184 390 C196 406 223 422 273 422 C356 422 358 371 358 346 C314 332 306 330 203 309 C155 300 78 284 42 212 C32 192 26 169 26 144 C26 58 94 -12 207 -12 C276 -12 329 17 355 39 C355 32 357 12 358 0 L500 0 C478 30 478 43 478 81 L478 346 C478 400 477 447 418 483 C374 509 316 515 268 515 C236 515 117 515 69 428 C53 399 51 378 49 353 L172 346 Z M358 194 C358 179 358 164 351 149 C338 119 295 91 234 91 C186 91 153 111 153 150 C153 203 210 213 253 219 C307 228 334 237 358 249 L358 194 Z M270 706 L220 573 L310 573 L418 706 L270 706 Z " />
<glyph glyph-name="acircumflex" unicode="&#xe2;" horiz-adv-x="542" d="M172 346 C172 360 171 374 184 390 C196 406 223 422 273 422 C356 422 358 371 358 346 C314 332 306 330 203 309 C155 300 78 284 42 212 C32 192 26 169 26 144 C26 58 94 -12 207 -12 C276 -12 329 17 355 39 C355 32 357 12 358 0 L500 0 C478 30 478 43 478 81 L478 346 C478 400 477 447 418 483 C374 509 316 515 268 515 C236 515 117 515 69 428 C53 399 51 378 49 353 L172 346 Z M358 194 C358 179 358 164 351 149 C338 119 295 91 234 91 C186 91 153 111 153 150 C153 203 210 213 253 219 C307 228 334 237 358 249 L358 194 Z M213 706 L102 572 L223 572 L273 639 L320 572 L442 572 L331 706 L213 706 Z " />
<glyph glyph-name="atilde" unicode="&#xe3;" horiz-adv-x="542" d="M172 346 C172 360 171 374 184 390 C196 406 223 422 273 422 C356 422 358 371 358 346 C314 332 306 330 203 309 C155 300 78 284 42 212 C32 192 26 169 26 144 C26 58 94 -12 207 -12 C276 -12 329 17 355 39 C355 32 357 12 358 0 L500 0 C478 30 478 43 478 81 L478 346 C478 400 477 447 418 483 C374 509 316 515 268 515 C236 515 117 515 69 428 C53 399 51 378 49 353 L172 346 Z M358 194 C358 179 358 164 351 149 C338 119 295 91 234 91 C186 91 153 111 153 150 C153 203 210 213 253 219 C307 228 334 237 358 249 L358 194 Z M379 706 C373 688 372 684 361 678 C352 673 345 673 342 673 C327 673 295 685 272 694 C254 701 226 710 201 710 C152 710 128 673 121 662 C104 636 100 613 97 584 L175 584 C180 608 190 622 211 622 C228 622 250 613 269 606 C295 596 326 583 356 583 C410 583 438 628 448 662 C450 669 455 700 456 706 L379 706 Z " />
<glyph glyph-name="adieresis" unicode="&#xe4;" horiz-adv-x="542" d="M172 346 C172 360 171 374 184 390 C196 406 223 422 273 422 C356 422 358 371 358 346 C314 332 306 330 203 309 C155 300 78 284 42 212 C32 192 26 169 26 144 C26 58 94 -12 207 -12 C276 -12 329 17 355 39 C355 32 357 12 358 0 L500 0 C478 30 478 43 478 81 L478 346 C478 400 477 447 418 483 C374 509 316 515 268 515 C236 515 117 515 69 428 C53 399 51 378 49 353 L172 346 Z M358 194 C358 179 358 164 351 149 C338 119 295 91 234 91 C186 91 153 111 153 150 C153 203 210 213 253 219 C307 228 334 237 358 249 L358 194 Z M107 706 L107 587 L220 587 L220 706 L107 706 Z M308 706 L308 587 L421 587 L421 706 L308 706 Z " />
<glyph glyph-name="aring" unicode="&#xe5;" horiz-adv-x="542" d="M172 346 C172 360 171 374 184 390 C196 406 223 422 273 422 C356 422 358 371 358 346 C314 332 306 330 203 309 C155 300 78 284 42 212 C32 192 26 169 26 144 C26 58 94 -12 207 -12 C276 -12 329 17 355 39 C355 32 357 12 358 0 L500 0 C478 30 478 43 478 81 L478 346 C478 400 477 447 418 483 C374 509 316 515 268 515 C236 515 117 515 69 428 C53 399 51 378 49 353 L172 346 Z M358 194 C358 179 358 164 351 149 C338 119 295 91 234 91 C186 91 153 111 153 150 C153 203 210 213 253 219 C307 228 334 237 358 249 L358 194 Z M164 662 C164 606 210 560 266 560 C322 560 368 606 368 662 C368 718 322 764 266 764 C210 764 164 718 164 662 L164 662 Z M224 662 C224 685 243 704 266 704 C289 704 308 685 308 662 C308 639 289 620 266 620 C243 620 224 639 224 662 L224 662 Z " />
<glyph glyph-name="ae" unicode="&#xe6;" horiz-adv-x="875" d="M169 347 C170 365 175 428 270 428 C360 428 363 366 364 340 C334 328 329 327 242 308 C160 290 29 262 29 136 C29 85 54 44 86 20 C128 -13 185 -15 216 -15 C316 -15 366 21 412 59 C494 -15 568 -15 597 -15 C726 -15 793 52 832 101 L736 160 C712 130 682 92 615 92 C527 92 486 154 481 227 L846 227 C844 338 810 397 790 425 C725 512 628 515 596 515 C508 515 466 479 434 449 C407 478 370 515 259 515 C151 515 66 469 53 347 L169 347 Z M482 313 C487 373 528 418 592 418 C644 418 690 386 704 313 L482 313 Z M364 240 C360 169 359 161 351 142 C341 117 310 73 241 73 C184 73 156 103 156 139 C156 191 209 202 241 208 C324 225 331 226 364 240 L364 240 Z " />
<glyph glyph-name="ccedilla" unicode="&#xe7;" horiz-adv-x="500" d="M492 373 C467 431 402 515 277 515 C134 515 24 403 24 250 C24 176 50 108 93 61 C143 6 195 -3 246 -12 L169 -92 L169 -106 C176 -105 183 -105 189 -105 C224 -105 255 -107 255 -129 C255 -152 218 -155 191 -155 C184 -155 182 -155 175 -153 L175 -184 C186 -185 196 -186 217 -186 C249 -186 371 -186 371 -109 C371 -60 313 -43 270 -46 L296 -12 C348 -3 397 5 448 60 C481 95 492 126 497 141 L395 195 C379 155 350 97 274 97 C196 97 148 163 148 253 C148 353 203 408 272 408 C342 408 376 356 385 323 L492 373 Z " />
<glyph glyph-name="egrave" unicode="&#xe8;" horiz-adv-x="562" d="M433 171 C418 150 385 102 303 102 C224 102 175 147 161 226 L531 226 C530 276 521 363 480 421 C470 436 415 515 283 515 C142 515 34 420 34 252 C34 68 160 -15 291 -15 C393 -15 473 29 535 112 L433 171 Z M165 314 C179 382 223 419 287 419 C340 419 388 392 399 314 L165 314 Z M139 707 L249 573 L338 573 L286 707 L139 707 Z " />
<glyph glyph-name="eacute" unicode="&#xe9;" horiz-adv-x="562" d="M433 171 C418 150 385 102 303 102 C224 102 175 147 161 226 L531 226 C530 276 521 363 480 421 C470 436 415 515 283 515 C142 515 34 420 34 252 C34 68 160 -15 291 -15 C393 -15 473 29 535 112 L433 171 Z M165 314 C179 382 223 419 287 419 C340 419 388 392 399 314 L165 314 Z M280 706 L230 573 L320 573 L428 706 L280 706 Z " />
<glyph glyph-name="ecircumflex" unicode="&#xea;" horiz-adv-x="562" d="M433 171 C418 150 385 102 303 102 C224 102 175 147 161 226 L531 226 C530 276 521 363 480 421 C470 436 415 515 283 515 C142 515 34 420 34 252 C34 68 160 -15 291 -15 C393 -15 473 29 535 112 L433 171 Z M165 314 C179 382 223 419 287 419 C340 419 388 392 399 314 L165 314 Z M223 706 L112 572 L233 572 L283 639 L330 572 L452 572 L341 706 L223 706 Z " />
<glyph glyph-name="edieresis" unicode="&#xeb;" horiz-adv-x="562" d="M433 171 C418 150 385 102 303 102 C224 102 175 147 161 226 L531 226 C530 276 521 363 480 421 C470 436 415 515 283 515 C142 515 34 420 34 252 C34 68 160 -15 291 -15 C393 -15 473 29 535 112 L433 171 Z M165 314 C179 382 223 419 287 419 C340 419 388 392 399 314 L165 314 Z M125 706 L125 587 L238 587 L238 706 L125 706 Z M326 706 L326 587 L439 587 L439 706 L326 706 Z " />
<glyph glyph-name="igrave" unicode="&#xec;" horiz-adv-x="250" d="M65 500 L65 0 L184 0 L184 500 L65 500 Z M-18 707 L92 573 L181 573 L129 707 L-18 707 Z " />
<glyph glyph-name="iacute" unicode="&#xed;" horiz-adv-x="250" d="M65 500 L65 0 L184 0 L184 500 L65 500 Z M123 706 L73 573 L163 573 L271 706 L123 706 Z " />
<glyph glyph-name="icircumflex" unicode="&#xee;" horiz-adv-x="250" d="M65 500 L65 0 L184 0 L184 500 L65 500 Z M66 706 L-45 572 L76 572 L126 639 L173 572 L295 572 L184 706 L66 706 Z " />
<glyph glyph-name="idieresis" unicode="&#xef;" horiz-adv-x="250" d="M65 500 L65 0 L184 0 L184 500 L65 500 Z M-32 706 L-32 587 L81 587 L81 706 L-32 706 Z M169 706 L169 587 L282 587 L282 706 L169 706 Z " />
<glyph glyph-name="eth" unicode="&#xf0;" horiz-adv-x="583" d="M522 631 L502 684 L409 659 C385 688 381 693 353 721 L241 673 C265 649 268 647 288 626 L145 587 L164 534 L328 578 C341 561 366 525 377 479 C362 492 335 516 275 516 C155 516 35 420 35 255 C35 146 94 -14 297 -14 C334 -14 452 -14 518 120 C535 154 550 201 550 282 C550 367 529 484 445 610 L522 631 Z M424 254 C427 172 383 96 296 96 C225 96 160 151 160 256 C160 351 218 407 290 407 C373 407 421 338 424 254 L424 254 Z " />
<glyph glyph-name="ntilde" unicode="&#xf1;" horiz-adv-x="562" d="M63 0 L184 0 L184 217 C184 254 184 305 203 342 C220 375 256 398 295 398 C334 398 366 375 377 331 C381 317 381 292 381 255 L381 0 L500 0 L500 294 C500 359 500 413 469 455 C444 489 395 515 338 515 C299 515 253 502 223 480 C202 466 190 450 184 441 L184 500 L63 500 L63 0 Z M389 706 C383 688 382 684 371 678 C362 673 355 673 352 673 C337 673 305 685 282 694 C264 701 236 710 211 710 C162 710 138 673 131 662 C114 636 110 613 107 584 L185 584 C190 608 200 622 221 622 C238 622 260 613 279 606 C305 596 336 583 366 583 C420 583 448 628 458 662 C460 669 465 700 466 706 L389 706 Z " />
<glyph glyph-name="ograve" unicode="&#xf2;" horiz-adv-x="583" d="M549 252 C548 418 429 515 290 515 C141 515 35 405 35 252 C35 99 139 -15 295 -15 C446 -15 549 96 549 252 L549 252 Z M423 254 C426 171 382 95 295 95 C223 95 160 152 160 255 C160 347 214 407 289 407 C373 407 421 337 423 254 L423 254 Z M149 707 L259 573 L348 573 L296 707 L149 707 Z " />
<glyph glyph-name="oacute" unicode="&#xf3;" horiz-adv-x="583" d="M549 252 C548 418 429 515 290 515 C141 515 35 405 35 252 C35 99 139 -15 295 -15 C446 -15 549 96 549 252 L549 252 Z M423 254 C426 171 382 95 295 95 C223 95 160 152 160 255 C160 347 214 407 289 407 C373 407 421 337 423 254 L423 254 Z M290 706 L240 573 L330 573 L438 706 L290 706 Z " />
<glyph glyph-name="ocircumflex" unicode="&#xf4;" horiz-adv-x="583" d="M549 252 C548 418 429 515 290 515 C141 515 35 405 35 252 C35 99 139 -15 295 -15 C446 -15 549 96 549 252 L549 252 Z M423 254 C426 171 382 95 295 95 C223 95 160 152 160 255 C160 347 214 407 289 407 C373 407 421 337 423 254 L423 254 Z M233 706 L122 572 L243 572 L293 639 L340 572 L462 572 L351 706 L233 706 Z " />
<glyph glyph-name="otilde" unicode="&#xf5;" horiz-adv-x="583" d="M549 252 C548 418 429 515 290 515 C141 515 35 405 35 252 C35 99 139 -15 295 -15 C446 -15 549 96 549 252 L549 252 Z M423 254 C426 171 382 95 295 95 C223 95 160 152 160 255 C160 347 214 407 289 407 C373 407 421 337 423 254 L423 254 Z M399 706 C393 688 392 684 381 678 C372 673 365 673 362 673 C347 673 315 685 292 694 C274 701 246 710 221 710 C172 710 148 673 141 662 C124 636 120 613 117 584 L195 584 C200 608 210 622 231 622 C248 622 270 613 289 606 C315 596 346 583 376 583 C430 583 458 628 468 662 C470 669 475 700 476 706 L399 706 Z " />
<glyph glyph-name="odieresis" unicode="&#xf6;" horiz-adv-x="583" d="M549 252 C548 418 429 515 290 515 C141 515 35 405 35 252 C35 99 139 -15 295 -15 C446 -15 549 96 549 252 L549 252 Z M423 254 C426 171 382 95 295 95 C223 95 160 152 160 255 C160 347 214 407 289 407 C373 407 421 337 423 254 L423 254 Z M136 706 L136 587 L249 587 L249 706 L136 706 Z M337 706 L337 587 L450 587 L450 706 L337 706 Z " />
<glyph glyph-name="divide" unicode="&#xf7;" horiz-adv-x="667" d="M265 129 C265 91 295 61 333 61 C371 61 401 91 401 129 C401 167 371 197 333 197 C295 197 265 167 265 129 L265 129 Z M666 342 L0 342 L0 239 L666 239 L666 342 Z M265 452 C265 414 295 384 333 384 C371 384 401 414 401 452 C401 490 371 520 333 520 C295 520 265 490 265 452 L265 452 Z " />
<glyph glyph-name="oslash" unicode="&#xf8;" horiz-adv-x="583" d="M469 447 C440 473 387 515 290 515 C124 515 30 388 30 253 C30 182 55 141 66 123 L9 79 L53 20 L107 62 C147 21 189 -15 284 -15 C474 -15 547 125 547 248 C547 314 529 353 510 388 L565 432 L520 488 L469 447 Z M156 196 C153 209 149 224 149 254 C149 390 246 417 288 417 C302 417 350 414 381 376 L156 196 Z M417 313 C424 297 430 280 430 244 C430 115 338 84 292 84 C253 84 217 103 193 133 L417 313 Z " />
<glyph glyph-name="ugrave" unicode="&#xf9;" horiz-adv-x="583" d="M397 500 L397 288 C396 218 395 186 377 153 C361 127 330 100 280 100 C236 100 200 119 187 163 C183 176 183 193 183 213 L183 500 L62 500 L62 211 C62 136 62 89 96 46 C114 23 153 -12 235 -12 C327 -12 376 31 397 51 L397 0 L517 0 L517 500 L397 500 Z M149 707 L259 573 L348 573 L296 707 L149 707 Z " />
<glyph glyph-name="uacute" unicode="&#xfa;" horiz-adv-x="583" d="M397 500 L397 288 C396 218 395 186 377 153 C361 127 330 100 280 100 C236 100 200 119 187 163 C183 176 183 193 183 213 L183 500 L62 500 L62 211 C62 136 62 89 96 46 C114 23 153 -12 235 -12 C327 -12 376 31 397 51 L397 0 L517 0 L517 500 L397 500 Z M290 706 L240 573 L330 573 L438 706 L290 706 Z " />
<glyph glyph-name="ucircumflex" unicode="&#xfb;" horiz-adv-x="583" d="M397 500 L397 288 C396 218 395 186 377 153 C361 127 330 100 280 100 C236 100 200 119 187 163 C183 176 183 193 183 213 L183 500 L62 500 L62 211 C62 136 62 89 96 46 C114 23 153 -12 235 -12 C327 -12 376 31 397 51 L397 0 L517 0 L517 500 L397 500 Z M233 706 L122 572 L243 572 L293 639 L340 572 L462 572 L351 706 L233 706 Z " />
<glyph glyph-name="udieresis" unicode="&#xfc;" horiz-adv-x="583" d="M397 500 L397 288 C396 218 395 186 377 153 C361 127 330 100 280 100 C236 100 200 119 187 163 C183 176 183 193 183 213 L183 500 L62 500 L62 211 C62 136 62 89 96 46 C114 23 153 -12 235 -12 C327 -12 376 31 397 51 L397 0 L517 0 L517 500 L397 500 Z M133 706 L133 587 L246 587 L246 706 L133 706 Z M334 706 L334 587 L447 587 L447 706 L334 706 Z " />
<glyph glyph-name="yacute" unicode="&#xfd;" horiz-adv-x="479" d="M347 500 L252 127 L141 500 L12 500 L193 -10 C193 -20 179 -42 165 -51 C146 -64 120 -64 111 -64 C99 -64 90 -63 79 -61 L79 -166 C93 -168 112 -172 151 -172 C244 -172 281 -135 315 -30 L343 64 L470 500 L347 500 Z M237 706 L187 573 L277 573 L385 706 L237 706 Z " />
<glyph glyph-name="thorn" unicode="&#xfe;" horiz-adv-x="583" d="M65 -163 L184 -163 L184 41 C207 20 246 -15 322 -15 C453 -15 548 94 548 245 C548 383 468 515 321 515 C243 515 203 474 184 454 L184 706 L65 706 L65 -163 Z M183 253 C185 360 248 400 303 400 C339 400 426 376 426 251 C426 138 363 98 305 98 C238 98 181 150 183 253 L183 253 Z " />
<glyph glyph-name="ydieresis" unicode="&#xff;" horiz-adv-x="479" d="M347 500 L252 127 L141 500 L12 500 L193 -10 C193 -20 179 -42 165 -51 C146 -64 120 -64 111 -64 C99 -64 90 -63 79 -61 L79 -166 C93 -168 112 -172 151 -172 C244 -172 281 -135 315 -30 L343 64 L470 500 L347 500 Z M82 706 L82 587 L195 587 L195 706 L82 706 Z M283 706 L283 587 L396 587 L396 706 L283 706 Z " />
<glyph glyph-name="dotlessi" unicode="&#x131;" horiz-adv-x="250" d="M65 500 L65 0 L184 0 L184 500 L65 500 Z " />
<glyph glyph-name="Lslash" unicode="&#x141;" horiz-adv-x="521" d="M215 293 L353 449 L353 585 L215 430 L215 707 L82 707 L82 279 L28 217 L28 85 L82 145 L82 0 L495 0 L495 120 L215 120 L215 293 Z " />
<glyph glyph-name="lslash" unicode="&#x142;" horiz-adv-x="250" d="M65 706 L65 411 L12 351 L12 238 L65 295 L65 0 L186 0 L186 431 L236 487 L236 601 L186 548 L186 706 L65 706 Z " />
<glyph glyph-name="OE" unicode="&#x152;" horiz-adv-x="1104" d="M682 417 L682 586 L1054 586 L1054 706 L551 706 L551 676 C523 693 470 724 390 724 C225 724 47 592 47 339 C47 289 53 177 142 82 C228 -10 328 -18 379 -18 C471 -18 524 11 551 25 L551 0 L1077 0 L1077 119 L682 119 L682 303 L1007 303 L1007 417 L682 417 Z M551 188 C551 166 508 99 401 99 C288 99 187 177 187 342 C187 519 290 599 396 599 C470 599 522 560 541 529 C551 512 551 489 551 454 L551 188 Z " />
<glyph glyph-name="oe" unicode="&#x153;" horiz-adv-x="917" d="M777 160 C743 110 697 92 656 92 C580 92 537 145 526 221 L885 221 C882 281 878 352 831 417 C809 448 780 474 747 491 C713 507 675 515 636 515 C581 515 528 501 460 440 C401 500 339 515 283 515 C138 515 34 404 34 245 C34 107 112 -15 279 -15 C307 -15 399 -15 465 75 C527 -15 616 -15 649 -15 C721 -15 770 3 823 46 C849 68 864 86 874 101 L777 160 Z M526 307 C536 368 574 411 635 411 C693 411 734 369 746 307 L526 307 Z M411 246 C411 136 345 94 283 94 C191 94 155 175 155 249 C155 332 199 403 281 403 C349 403 410 352 411 246 L411 246 Z " />
<glyph glyph-name="Scaron" unicode="&#x160;" horiz-adv-x="667" d="M23 132 C76 46 159 12 206 -2 C249 -14 293 -18 332 -18 C482 -18 632 47 632 209 C632 360 498 399 403 419 L330 435 C266 447 200 459 200 519 C200 573 262 605 333 605 C446 605 492 535 516 500 L624 581 C574 649 492 724 340 724 C174 724 61 638 61 504 C61 387 148 344 180 331 C202 322 224 317 269 306 L354 288 C418 273 420 272 436 266 C458 257 489 241 489 196 C489 172 480 136 429 115 C404 105 378 103 353 103 C204 103 151 184 134 210 L23 132 Z M394 772 L494 895 L376 895 L334 839 L291 895 L172 895 L276 772 L394 772 Z " />
<glyph glyph-name="scaron" unicode="&#x161;" horiz-adv-x="521" d="M22 74 C85 13 173 -15 262 -15 C417 -15 487 78 487 156 C487 198 467 238 436 262 C404 287 375 292 271 311 C207 322 170 332 170 368 C170 394 196 419 253 419 C341 419 375 370 389 343 L474 422 C464 434 448 451 423 467 C389 491 334 515 258 515 C121 515 44 437 44 352 C44 307 66 238 185 210 C203 205 285 190 302 186 C318 183 354 175 354 143 C354 118 324 84 255 84 C186 84 141 111 111 148 L22 74 Z M319 572 L431 707 L311 707 L261 643 L213 707 L92 707 L204 572 L319 572 Z " />
<glyph glyph-name="Ydieresis" unicode="&#x178;" horiz-adv-x="625" d="M614 706 L467 706 L312 413 L159 706 L10 706 L246 279 L246 0 L376 0 L376 279 L614 706 Z M156 895 L156 772 L268 772 L268 895 L156 895 Z M356 895 L356 772 L470 772 L470 895 L356 895 Z " />
<glyph glyph-name="Zcaron" unicode="&#x17d;" horiz-adv-x="604" d="M204 119 L575 593 L575 706 L57 706 L57 587 L410 587 L24 108 L24 0 L575 0 L575 119 L204 119 Z M363 772 L463 895 L345 895 L303 839 L260 895 L141 895 L245 772 L363 772 Z " />
<glyph glyph-name="zcaron" unicode="&#x17e;" horiz-adv-x="500" d="M58 500 L58 393 L301 393 L31 92 L31 0 L459 0 L459 106 L194 106 L459 407 L459 500 L58 500 Z M310 572 L422 707 L302 707 L252 643 L204 707 L83 707 L195 572 L310 572 Z " />
<glyph glyph-name="florin" unicode="&#x192;" horiz-adv-x="437" d="M394 474 L291 474 L293 499 C297 551 305 581 368 581 C382 581 392 580 407 579 L418 680 C403 682 378 686 337 686 C301 686 222 685 191 615 C176 580 169 504 166 474 L88 474 L78 389 L156 389 L113 23 C105 -42 99 -68 63 -68 C46 -68 35 -65 28 -63 L15 -169 C33 -173 65 -179 92 -179 C132 -179 173 -167 198 -136 C219 -108 226 -72 235 0 L281 389 L385 389 L394 474 Z " />
<glyph glyph-name="circumflex" unicode="&#x2c6;" horiz-adv-x="271" d="M77 706 L-34 572 L87 572 L137 639 L184 572 L306 572 L195 706 L77 706 Z " />
<glyph glyph-name="caron" unicode="&#x2c7;" horiz-adv-x="271" d="M193 572 L305 707 L185 707 L135 643 L87 707 L-34 707 L78 572 L193 572 Z " />
<glyph glyph-name="breve" unicode="&#x2d8;" horiz-adv-x="271" d="M197 706 C194 692 187 653 137 653 C89 653 81 688 77 706 L-11 706 C-5 680 17 575 132 575 C248 575 273 667 283 706 L197 706 Z " />
<glyph glyph-name="dotaccent" unicode="&#x2d9;" horiz-adv-x="271" d="M68 586 L202 586 L202 707 L68 707 L68 586 Z " />
<glyph glyph-name="ring" unicode="&#x2da;" horiz-adv-x="271" d="M34 662 C34 606 80 560 136 560 C192 560 238 606 238 662 C238 718 192 764 136 764 C80 764 34 718 34 662 L34 662 Z M94 662 C94 685 113 704 136 704 C159 704 178 685 178 662 C178 639 159 620 136 620 C113 620 94 639 94 662 L94 662 Z " />
<glyph glyph-name="ogonek" unicode="&#x2db;" horiz-adv-x="271" d="M108 6 C48 -64 44 -96 44 -115 C44 -149 63 -172 86 -185 C109 -196 133 -197 152 -197 L226 -197 L226 -105 L190 -105 C176 -105 144 -104 144 -73 C144 -54 158 -33 167 -22 L191 6 L108 6 Z " />
<glyph glyph-name="tilde" unicode="&#x2dc;" horiz-adv-x="271" d="M238 706 C232 688 231 684 220 678 C211 673 204 673 201 673 C186 673 154 685 131 694 C113 701 85 710 60 710 C11 710 -13 673 -20 662 C-37 636 -41 613 -44 584 L34 584 C39 608 49 622 70 622 C87 622 109 613 128 606 C154 596 185 583 215 583 C269 583 297 628 307 662 C309 669 314 700 315 706 L238 706 Z " />
<glyph glyph-name="hungarumlaut" unicode="&#x2dd;" horiz-adv-x="271" d="M-43 574 L46 574 L142 706 L9 706 L-43 574 Z M129 574 L218 574 L314 706 L182 706 L129 574 Z " />
<glyph glyph-name="endash" unicode="&#x2013;" horiz-adv-x="562" d="M42 369 L42 258 L520 258 L520 369 L42 369 Z " />
<glyph glyph-name="emdash" unicode="&#x2014;" horiz-adv-x="708" d="M42 369 L42 258 L666 258 L666 369 L42 369 Z " />
<glyph glyph-name="quoteleft" unicode="&#x2018;" horiz-adv-x="208" d="M169 433 L169 570 L107 570 C104 635 136 646 161 650 L161 709 C133 703 62 689 42 629 C36 611 36 593 36 554 L36 433 L169 433 Z " />
<glyph glyph-name="quoteright" unicode="&#x2019;" horiz-adv-x="208" d="M40 706 L40 567 L101 567 C101 528 101 500 47 484 L47 431 C72 433 117 438 149 478 C170 504 170 526 170 582 L170 706 L40 706 Z " />
<glyph glyph-name="quotesinglbase" unicode="&#x201a;" horiz-adv-x="208" d="M39 139 L39 0 L100 0 C100 -39 100 -67 46 -83 L46 -136 C71 -134 116 -129 148 -89 C169 -63 169 -41 169 15 L169 139 L39 139 Z " />
<glyph glyph-name="quotedblleft" unicode="&#x201c;" horiz-adv-x="375" d="M167 436 L167 574 L106 574 C106 616 106 641 160 658 L160 711 C126 706 88 701 58 663 C37 637 37 615 37 559 L37 436 L167 436 Z M338 436 L338 574 L277 574 C277 616 277 641 331 658 L331 711 C297 706 259 701 229 663 C208 637 208 615 208 559 L208 436 L338 436 Z " />
<glyph glyph-name="quotedblright" unicode="&#x201d;" horiz-adv-x="375" d="M208 706 L208 568 L269 568 C269 526 269 501 215 484 L215 431 C249 436 287 441 317 479 C338 505 338 527 338 583 L338 706 L208 706 Z M37 706 L37 568 L98 568 C98 526 98 501 44 484 L44 431 C78 436 116 441 146 479 C167 505 167 527 167 583 L167 706 L37 706 Z " />
<glyph glyph-name="quotedblbase" unicode="&#x201e;" horiz-adv-x="375" d="M207 139 L207 0 L268 0 C268 -39 268 -67 214 -83 L214 -136 C239 -134 284 -129 316 -89 C337 -63 337 -41 337 15 L337 139 L207 139 Z M37 139 L37 0 L98 0 C98 -39 98 -67 44 -83 L44 -136 C69 -134 114 -129 146 -89 C167 -63 167 -41 167 15 L167 139 L37 139 Z " />
<glyph glyph-name="dagger" unicode="&#x2020;" horiz-adv-x="542" d="M503 366 L503 478 L335 478 L335 706 L209 706 L209 478 L40 478 L40 366 L209 366 L209 -44 L335 -44 L335 366 L503 366 Z " />
<glyph glyph-name="daggerdbl" unicode="&#x2021;" horiz-adv-x="500" d="M192 707 L192 530 L29 530 L29 428 L192 428 L192 230 L29 230 L29 129 L190 129 L190 -47 L308 -47 L308 129 L469 129 L469 230 L310 230 L310 427 L472 427 L472 530 L311 530 L311 707 L192 707 Z " />
<glyph glyph-name="bullet" unicode="&#x2022;" horiz-adv-x="333" d="M24 352 C24 274 88 210 166 210 C244 210 308 274 308 352 C308 430 244 494 166 494 C88 494 24 430 24 352 L24 352 Z " />
<glyph glyph-name="ellipsis" unicode="&#x2026;" horiz-adv-x="1000" d="M767 137 L767 0 L899 0 L899 137 L767 137 Z M434 137 L434 0 L566 0 L566 137 L434 137 Z M101 137 L101 0 L233 0 L233 137 L101 137 Z " />
<glyph glyph-name="perthousand" unicode="&#x2030;" horiz-adv-x="1250" d="M849 223 C848 267 848 377 769 427 C746 442 718 449 689 449 C657 449 624 440 598 421 C524 367 524 260 524 225 C524 176 524 75 592 23 C618 3 652 -7 686 -7 C750 -7 804 24 832 97 C847 137 849 180 849 223 L849 223 Z M759 220 C759 163 757 71 686 71 C623 71 614 149 614 216 C614 241 615 265 619 290 C622 313 627 336 642 352 C653 364 670 372 687 372 C759 372 759 267 759 220 L759 220 Z M238 -5 L307 -36 L621 646 L553 678 L238 -5 Z M351 458 C350 501 349 603 280 654 C255 672 223 681 191 681 C156 681 121 670 95 649 C26 594 26 492 26 452 C26 411 26 300 102 249 C127 232 157 225 187 225 C256 225 309 260 336 335 C350 375 351 417 351 458 L351 458 Z M261 457 C261 404 261 303 190 303 C116 303 116 408 116 448 C116 502 118 605 189 605 C261 605 261 503 261 457 L261 457 Z M1225 229 C1224 288 1216 449 1064 449 C1027 449 979 440 942 389 C904 337 899 265 899 212 C899 166 904 104 932 61 C946 40 983 -7 1060 -7 C1132 -7 1175 32 1197 73 C1221 118 1225 169 1225 219 L1225 229 Z M990 224 C990 281 994 373 1063 373 C1117 373 1135 317 1135 218 C1135 168 1135 71 1062 71 C989 71 990 172 990 224 L990 224 Z " />
<glyph glyph-name="guilsinglleft" unicode="&#x2039;" horiz-adv-x="250" d="M198 132 L198 244 L112 314 L198 385 L198 499 L56 385 L56 244 L198 132 Z " />
<glyph glyph-name="guilsinglright" unicode="&#x203a;" horiz-adv-x="250" d="M50 496 L50 383 L136 314 L50 242 L50 129 L192 242 L192 383 L50 496 Z " />
<glyph glyph-name="fraction" unicode="&#x2044;" horiz-adv-x="125" d="M-145 24 L-101 0 L276 690 L230 714 L-145 24 Z " />
<glyph glyph-name="trademark" unicode="&#x2122;" horiz-adv-x="687" d="M655 706 L562 706 L486 455 L406 706 L314 706 L314 374 L383 374 L379 565 L374 632 L389 579 L453 374 L516 374 L578 578 L593 633 L589 565 L586 374 L655 374 L655 706 Z M184 648 L286 648 L286 706 L8 706 L8 648 L113 648 L113 374 L184 374 L184 648 Z " />
<glyph glyph-name="minus" unicode="&#x2212;" horiz-adv-x="667" d="M667 345 L0 345 L0 242 L667 242 L667 345 Z " />
<glyph glyph-name="fi" unicode="&#xfb01;" horiz-adv-x="562" d="M308 415 L308 501 L199 501 L199 530 C199 567 202 604 270 604 C287 604 298 603 308 601 L308 703 C286 705 264 707 240 707 C78 707 78 629 79 558 L79 501 L4 501 L4 415 L79 415 L79 0 L199 0 L199 415 L308 415 Z M378 700 L378 579 L497 579 L497 700 L378 700 Z M378 501 L378 0 L497 0 L497 501 L378 501 Z " />
<glyph glyph-name="fl" unicode="&#xfb02;" horiz-adv-x="562" d="M308 415 L308 501 L199 501 L199 530 C199 567 202 604 270 604 C287 604 298 603 308 601 L308 703 C286 705 264 707 240 707 C78 707 78 629 79 558 L79 501 L4 501 L4 415 L79 415 L79 0 L199 0 L199 415 L308 415 Z M378 707 L378 0 L499 0 L499 707 L378 707 Z " />
</font>
</svg>
